<svg width="37" height="37" viewBox="0 0 37 37" fill="none" xmlns="http://www.w3.org/2000/svg">
<path d="M12.6369 18.146C12.6369 14.8407 15.3172 12.1605 18.6245 12.1605C21.9318 12.1605 24.6136 14.8407 24.6136 18.146C24.6136 21.4513 21.9318 24.1315 18.6245 24.1315C15.3172 24.1315 12.6369 21.4513 12.6369 18.146ZM9.39929 18.146C9.39929 23.2381 13.5294 27.3657 18.6245 27.3657C23.7196 27.3657 27.8498 23.2381 27.8498 18.146C27.8498 13.0539 23.7196 8.92628 18.6245 8.92628C13.5294 8.92628 9.39929 13.0539 9.39929 18.146ZM26.0591 8.56071C26.0589 8.98686 26.1852 9.40348 26.4219 9.7579C26.6587 10.1123 26.9953 10.3886 27.3892 10.5518C27.783 10.7151 28.2165 10.7579 28.6347 10.675C29.053 10.592 29.4372 10.3869 29.7388 10.0857C30.0404 9.78452 30.2459 9.40068 30.3293 8.98276C30.4126 8.56484 30.3701 8.13161 30.2071 7.73784C30.0441 7.34407 29.7679 7.00746 29.4134 6.77056C29.059 6.53367 28.6422 6.40714 28.2158 6.40697H28.215C27.6434 6.40723 27.0953 6.6342 26.6911 7.03803C26.2869 7.44185 26.0596 7.98951 26.0591 8.56071ZM11.3663 32.761C9.61473 32.6813 8.66269 32.3897 8.03 32.1433C7.19121 31.817 6.59273 31.4283 5.9635 30.8003C5.33426 30.1723 4.94476 29.5748 4.61965 28.7365C4.37302 28.1045 4.08125 27.1527 4.00163 25.4021C3.91453 23.5095 3.89714 22.941 3.89714 18.1461C3.89714 13.3513 3.91597 12.7843 4.00163 10.8901C4.0814 9.13959 4.37532 8.18969 4.61965 7.5558C4.9462 6.71752 5.33513 6.1194 5.9635 5.49054C6.59187 4.86168 7.18977 4.47241 8.03 4.1475C8.6624 3.90101 9.61473 3.60942 11.3663 3.52984C13.2601 3.4428 13.8289 3.42542 18.6245 3.42542C23.4201 3.42542 23.9896 3.44423 25.8849 3.52984C27.6365 3.60956 28.5869 3.90331 29.2212 4.1475C30.06 4.47241 30.6585 4.86254 31.2877 5.49054C31.9169 6.11854 32.305 6.71752 32.6316 7.5558C32.8782 8.18782 33.17 9.13959 33.2496 10.8901C33.3367 12.7843 33.3541 13.3513 33.3541 18.1461C33.3541 22.941 33.3367 23.508 33.2496 25.4021C33.1698 27.1527 32.8766 28.1042 32.6316 28.7365C32.305 29.5748 31.9161 30.1729 31.2877 30.8003C30.6593 31.4277 30.06 31.817 29.2212 32.1433C28.5888 32.3898 27.6365 32.6814 25.8849 32.761C23.9911 32.848 23.4223 32.8654 18.6245 32.8654C13.8268 32.8654 13.2595 32.848 11.3663 32.761ZM11.2176 0.299654C9.305 0.3867 7.99809 0.689782 6.85676 1.13363C5.67475 1.59199 4.67413 2.20691 3.67422 3.20464C2.67431 4.20237 2.0606 5.20398 1.60197 6.38528C1.15785 7.52665 0.854591 8.83205 0.767493 10.7435C0.678957 12.6579 0.658691 13.27 0.658691 18.146C0.658691 23.022 0.678957 23.6341 0.767493 25.5485C0.854591 27.4601 1.15785 28.7653 1.60197 29.9067C2.0606 31.0873 2.67446 32.0901 3.67422 33.0874C4.67398 34.0846 5.67475 34.6987 6.85676 35.1584C8.00025 35.6022 9.305 35.9053 11.2176 35.9923C13.1342 36.0794 13.7456 36.1011 18.6245 36.1011C23.5035 36.1011 24.1159 36.0808 26.0315 35.9923C27.9442 35.9053 29.2502 35.6022 30.3923 35.1584C31.5736 34.6987 32.5749 34.0851 33.5748 33.0874C34.5747 32.0896 35.1872 31.0873 35.6471 29.9067C36.0912 28.7653 36.3959 27.4599 36.4816 25.5485C36.5687 23.6326 36.5889 23.022 36.5889 18.146C36.5889 13.27 36.5687 12.6579 36.4816 10.7435C36.3945 8.83191 36.0912 7.52593 35.6471 6.38528C35.1872 5.20469 34.5732 4.20395 33.5748 3.20464C32.5765 2.20533 31.5736 1.59199 30.3937 1.13363C29.2502 0.689782 27.944 0.385264 26.0329 0.299654C24.1173 0.212608 23.5049 0.190918 18.626 0.190918C13.747 0.190918 13.1342 0.211171 11.2176 0.299654Z" fill="black"/>
<path d="M12.6369 18.146C12.6369 14.8407 15.3172 12.1605 18.6245 12.1605C21.9318 12.1605 24.6136 14.8407 24.6136 18.146C24.6136 21.4513 21.9318 24.1315 18.6245 24.1315C15.3172 24.1315 12.6369 21.4513 12.6369 18.146ZM9.39929 18.146C9.39929 23.2381 13.5294 27.3657 18.6245 27.3657C23.7196 27.3657 27.8498 23.2381 27.8498 18.146C27.8498 13.0539 23.7196 8.92628 18.6245 8.92628C13.5294 8.92628 9.39929 13.0539 9.39929 18.146ZM26.0591 8.56071C26.0589 8.98686 26.1852 9.40348 26.4219 9.7579C26.6587 10.1123 26.9953 10.3886 27.3892 10.5518C27.783 10.7151 28.2165 10.7579 28.6347 10.675C29.053 10.592 29.4372 10.3869 29.7388 10.0857C30.0404 9.78452 30.2459 9.40068 30.3293 8.98276C30.4126 8.56484 30.3701 8.13161 30.2071 7.73784C30.0441 7.34407 29.7679 7.00746 29.4134 6.77056C29.059 6.53367 28.6422 6.40714 28.2158 6.40697H28.215C27.6434 6.40723 27.0953 6.6342 26.6911 7.03803C26.2869 7.44185 26.0596 7.98951 26.0591 8.56071ZM11.3663 32.761C9.61473 32.6813 8.66269 32.3897 8.03 32.1433C7.19121 31.817 6.59273 31.4283 5.9635 30.8003C5.33426 30.1723 4.94476 29.5748 4.61965 28.7365C4.37302 28.1045 4.08125 27.1527 4.00163 25.4021C3.91453 23.5095 3.89714 22.941 3.89714 18.1461C3.89714 13.3513 3.91597 12.7843 4.00163 10.8901C4.0814 9.13959 4.37532 8.18969 4.61965 7.5558C4.9462 6.71752 5.33513 6.1194 5.9635 5.49054C6.59187 4.86168 7.18977 4.47241 8.03 4.1475C8.6624 3.90101 9.61473 3.60942 11.3663 3.52984C13.2601 3.4428 13.8289 3.42542 18.6245 3.42542C23.4201 3.42542 23.9896 3.44423 25.8849 3.52984C27.6365 3.60956 28.5869 3.90331 29.2212 4.1475C30.06 4.47241 30.6585 4.86254 31.2877 5.49054C31.9169 6.11854 32.305 6.71752 32.6316 7.5558C32.8782 8.18782 33.17 9.13959 33.2496 10.8901C33.3367 12.7843 33.3541 13.3513 33.3541 18.1461C33.3541 22.941 33.3367 23.508 33.2496 25.4021C33.1698 27.1527 32.8766 28.1042 32.6316 28.7365C32.305 29.5748 31.9161 30.1729 31.2877 30.8003C30.6593 31.4277 30.06 31.817 29.2212 32.1433C28.5888 32.3898 27.6365 32.6814 25.8849 32.761C23.9911 32.848 23.4223 32.8654 18.6245 32.8654C13.8268 32.8654 13.2595 32.848 11.3663 32.761ZM11.2176 0.299654C9.305 0.3867 7.99809 0.689782 6.85676 1.13363C5.67475 1.59199 4.67413 2.20691 3.67422 3.20464C2.67431 4.20237 2.0606 5.20398 1.60197 6.38528C1.15785 7.52665 0.854591 8.83205 0.767493 10.7435C0.678957 12.6579 0.658691 13.27 0.658691 18.146C0.658691 23.022 0.678957 23.6341 0.767493 25.5485C0.854591 27.4601 1.15785 28.7653 1.60197 29.9067C2.0606 31.0873 2.67446 32.0901 3.67422 33.0874C4.67398 34.0846 5.67475 34.6987 6.85676 35.1584C8.00025 35.6022 9.305 35.9053 11.2176 35.9923C13.1342 36.0794 13.7456 36.1011 18.6245 36.1011C23.5035 36.1011 24.1159 36.0808 26.0315 35.9923C27.9442 35.9053 29.2502 35.6022 30.3923 35.1584C31.5736 34.6987 32.5749 34.0851 33.5748 33.0874C34.5747 32.0896 35.1872 31.0873 35.6471 29.9067C36.0912 28.7653 36.3959 27.4599 36.4816 25.5485C36.5687 23.6326 36.5889 23.022 36.5889 18.146C36.5889 13.27 36.5687 12.6579 36.4816 10.7435C36.3945 8.83191 36.0912 7.52593 35.6471 6.38528C35.1872 5.20469 34.5732 4.20395 33.5748 3.20464C32.5765 2.20533 31.5736 1.59199 30.3937 1.13363C29.2502 0.689782 27.944 0.385264 26.0329 0.299654C24.1173 0.212608 23.5049 0.190918 18.626 0.190918C13.747 0.190918 13.1342 0.211171 11.2176 0.299654Z" fill="white"/>
</svg>
