<svg width="28" height="28" viewBox="0 0 28 28" fill="none" xmlns="http://www.w3.org/2000/svg">
<path d="M10.5969 14.0851C10.5969 12.157 12.1604 10.5936 14.0897 10.5936C16.0189 10.5936 17.5833 12.157 17.5833 14.0851C17.5833 16.0132 16.0189 17.5767 14.0897 17.5767C12.1604 17.5767 10.5969 16.0132 10.5969 14.0851ZM8.7083 14.0851C8.7083 17.0555 11.1175 19.4633 14.0897 19.4633C17.0618 19.4633 19.4711 17.0555 19.4711 14.0851C19.4711 11.1148 17.0618 8.70696 14.0897 8.70696C11.1175 8.70696 8.7083 11.1148 8.7083 14.0851ZM18.4265 8.49371C18.4264 8.74229 18.5001 8.98532 18.6382 9.19207C18.7763 9.39881 18.9726 9.55998 19.2024 9.6552C19.4321 9.75042 19.685 9.77541 19.929 9.72702C20.1729 9.67862 20.3971 9.559 20.573 9.3833C20.749 9.20759 20.8688 8.98369 20.9175 8.73991C20.9661 8.49612 20.9413 8.2434 20.8462 8.0137C20.7511 7.784 20.59 7.58764 20.3832 7.44945C20.1765 7.31127 19.9334 7.23746 19.6846 7.23736H19.6841C19.3507 7.23751 19.031 7.36991 18.7952 7.60547C18.5594 7.84104 18.4268 8.16051 18.4265 8.49371ZM9.85574 22.6105C8.83398 22.564 8.27862 22.3939 7.90955 22.2502C7.42026 22.0599 7.07114 21.8331 6.70409 21.4668C6.33704 21.1005 6.10983 20.7519 5.92018 20.2629C5.77631 19.8942 5.60611 19.339 5.55967 18.3179C5.50886 17.2139 5.49871 16.8822 5.49871 14.0852C5.49871 11.2882 5.5097 10.9575 5.55967 9.85254C5.6062 8.83138 5.77765 8.27728 5.92018 7.90751C6.11067 7.41851 6.33754 7.06961 6.70409 6.70277C7.07064 6.33594 7.41942 6.10887 7.90955 5.91933C8.27845 5.77555 8.83398 5.60546 9.85574 5.55904C10.9604 5.50826 11.2923 5.49812 14.0897 5.49812C16.8871 5.49812 17.2193 5.5091 18.3249 5.55904C19.3467 5.60554 19.9011 5.77689 20.2711 5.91933C20.7604 6.10887 21.1095 6.33644 21.4765 6.70277C21.8436 7.06911 22.07 7.41851 22.2605 7.90751C22.4043 8.27619 22.5745 8.83138 22.621 9.85254C22.6718 10.9575 22.6819 11.2882 22.6819 14.0852C22.6819 16.8822 22.6718 17.2129 22.621 18.3179C22.5744 19.339 22.4034 19.8941 22.2605 20.2629C22.07 20.7519 21.8431 21.1008 21.4765 21.4668C21.11 21.8328 20.7604 22.0599 20.2711 22.2502C19.9022 22.394 19.3467 22.5641 18.3249 22.6105C17.2202 22.6613 16.8884 22.6715 14.0897 22.6715C11.291 22.6715 10.9601 22.6613 9.85574 22.6105ZM9.76897 3.67476C8.6533 3.72553 7.89094 3.90233 7.22516 4.16124C6.53565 4.42862 5.95196 4.78733 5.36868 5.36933C4.7854 5.95134 4.4274 6.53561 4.15986 7.2247C3.9008 7.8905 3.72389 8.65199 3.67309 9.76699C3.62144 10.8837 3.60962 11.2408 3.60962 14.0851C3.60962 16.9295 3.62144 17.2865 3.67309 18.4033C3.72389 19.5183 3.9008 20.2797 4.15986 20.9455C4.4274 21.6342 4.78548 22.2192 5.36868 22.8009C5.95187 23.3827 6.53565 23.7409 7.22516 24.009C7.8922 24.2679 8.6533 24.4447 9.76897 24.4955C10.887 24.5463 11.2436 24.5589 14.0897 24.5589C16.9357 24.5589 17.293 24.5471 18.4104 24.4955C19.5262 24.4447 20.288 24.2679 20.9542 24.009C21.6433 23.7409 22.2274 23.3829 22.8107 22.8009C23.394 22.2189 23.7512 21.6342 24.0195 20.9455C24.2786 20.2797 24.4563 19.5183 24.5063 18.4033C24.5571 17.2857 24.5689 16.9295 24.5689 14.0851C24.5689 11.2408 24.5571 10.8837 24.5063 9.76699C24.4555 8.65191 24.2786 7.89008 24.0195 7.2247C23.7512 6.53603 23.3931 5.95226 22.8107 5.36933C22.2283 4.7864 21.6433 4.42862 20.9551 4.16124C20.288 3.90233 19.5261 3.7247 18.4113 3.67476C17.2938 3.62398 16.9366 3.61133 14.0905 3.61133C11.2445 3.61133 10.887 3.62314 9.76897 3.67476Z" fill="black"/>
<path d="M10.5969 14.0851C10.5969 12.157 12.1604 10.5936 14.0897 10.5936C16.0189 10.5936 17.5833 12.157 17.5833 14.0851C17.5833 16.0132 16.0189 17.5767 14.0897 17.5767C12.1604 17.5767 10.5969 16.0132 10.5969 14.0851ZM8.7083 14.0851C8.7083 17.0555 11.1175 19.4633 14.0897 19.4633C17.0618 19.4633 19.4711 17.0555 19.4711 14.0851C19.4711 11.1148 17.0618 8.70696 14.0897 8.70696C11.1175 8.70696 8.7083 11.1148 8.7083 14.0851ZM18.4265 8.49371C18.4264 8.74229 18.5001 8.98532 18.6382 9.19207C18.7763 9.39881 18.9726 9.55998 19.2024 9.6552C19.4321 9.75042 19.685 9.77541 19.929 9.72702C20.1729 9.67862 20.3971 9.559 20.573 9.3833C20.749 9.20759 20.8688 8.98369 20.9175 8.73991C20.9661 8.49612 20.9413 8.2434 20.8462 8.0137C20.7511 7.784 20.59 7.58764 20.3832 7.44945C20.1765 7.31127 19.9334 7.23746 19.6846 7.23736H19.6841C19.3507 7.23751 19.031 7.36991 18.7952 7.60547C18.5594 7.84104 18.4268 8.16051 18.4265 8.49371ZM9.85574 22.6105C8.83398 22.564 8.27862 22.3939 7.90955 22.2502C7.42026 22.0599 7.07114 21.8331 6.70409 21.4668C6.33704 21.1005 6.10983 20.7519 5.92018 20.2629C5.77631 19.8942 5.60611 19.339 5.55967 18.3179C5.50886 17.2139 5.49871 16.8822 5.49871 14.0852C5.49871 11.2882 5.5097 10.9575 5.55967 9.85254C5.6062 8.83138 5.77765 8.27728 5.92018 7.90751C6.11067 7.41851 6.33754 7.06961 6.70409 6.70277C7.07064 6.33594 7.41942 6.10887 7.90955 5.91933C8.27845 5.77555 8.83398 5.60546 9.85574 5.55904C10.9604 5.50826 11.2923 5.49812 14.0897 5.49812C16.8871 5.49812 17.2193 5.5091 18.3249 5.55904C19.3467 5.60554 19.9011 5.77689 20.2711 5.91933C20.7604 6.10887 21.1095 6.33644 21.4765 6.70277C21.8436 7.06911 22.07 7.41851 22.2605 7.90751C22.4043 8.27619 22.5745 8.83138 22.621 9.85254C22.6718 10.9575 22.6819 11.2882 22.6819 14.0852C22.6819 16.8822 22.6718 17.2129 22.621 18.3179C22.5744 19.339 22.4034 19.8941 22.2605 20.2629C22.07 20.7519 21.8431 21.1008 21.4765 21.4668C21.11 21.8328 20.7604 22.0599 20.2711 22.2502C19.9022 22.394 19.3467 22.5641 18.3249 22.6105C17.2202 22.6613 16.8884 22.6715 14.0897 22.6715C11.291 22.6715 10.9601 22.6613 9.85574 22.6105ZM9.76897 3.67476C8.6533 3.72553 7.89094 3.90233 7.22516 4.16124C6.53565 4.42862 5.95196 4.78733 5.36868 5.36933C4.7854 5.95134 4.4274 6.53561 4.15986 7.2247C3.9008 7.8905 3.72389 8.65199 3.67309 9.76699C3.62144 10.8837 3.60962 11.2408 3.60962 14.0851C3.60962 16.9295 3.62144 17.2865 3.67309 18.4033C3.72389 19.5183 3.9008 20.2797 4.15986 20.9455C4.4274 21.6342 4.78548 22.2192 5.36868 22.8009C5.95187 23.3827 6.53565 23.7409 7.22516 24.009C7.8922 24.2679 8.6533 24.4447 9.76897 24.4955C10.887 24.5463 11.2436 24.5589 14.0897 24.5589C16.9357 24.5589 17.293 24.5471 18.4104 24.4955C19.5262 24.4447 20.288 24.2679 20.9542 24.009C21.6433 23.7409 22.2274 23.3829 22.8107 22.8009C23.394 22.2189 23.7512 21.6342 24.0195 20.9455C24.2786 20.2797 24.4563 19.5183 24.5063 18.4033C24.5571 17.2857 24.5689 16.9295 24.5689 14.0851C24.5689 11.2408 24.5571 10.8837 24.5063 9.76699C24.4555 8.65191 24.2786 7.89008 24.0195 7.2247C23.7512 6.53603 23.3931 5.95226 22.8107 5.36933C22.2283 4.7864 21.6433 4.42862 20.9551 4.16124C20.288 3.90233 19.5261 3.7247 18.4113 3.67476C17.2938 3.62398 16.9366 3.61133 14.0905 3.61133C11.2445 3.61133 10.887 3.62314 9.76897 3.67476Z" fill="white"/>
</svg>
