<svg width="36" height="36" viewBox="0 0 36 36" fill="none" xmlns="http://www.w3.org/2000/svg">
<path d="M18.0299 35.96C8.57059 35.96 0.879883 27.951 0.879883 18.097C0.879883 8.22897 8.57059 0.219971 18.0299 0.219971C27.4892 0.219971 35.1799 8.22897 35.1799 18.083C35.1799 27.937 27.4892 35.96 18.0299 35.96ZM32.4868 20.529C31.9911 20.3613 27.9581 19.1173 23.3625 19.8721C25.2784 25.3512 26.0555 29.8239 26.2029 30.7464C29.4989 28.4402 31.8437 24.7781 32.4868 20.529ZM23.751 32.1581C23.5366 30.8163 22.6791 26.1479 20.6292 20.5849C20.6024 20.5989 20.5622 20.6129 20.5354 20.6129C12.2686 23.618 9.3075 29.5863 9.03953 30.1454C11.5182 32.1581 14.6401 33.3602 18.0299 33.3602C20.053 33.3742 21.9958 32.9409 23.751 32.1581ZM7.15035 28.3144C7.48531 27.7273 11.5048 20.7946 19.0616 18.2367C19.2491 18.1668 19.4501 18.1109 19.6377 18.055C19.2759 17.1884 18.874 16.3218 18.4452 15.4692C11.1297 17.7475 4.02852 17.6497 3.38539 17.6357C3.38539 17.7895 3.37199 17.9432 3.37199 18.097C3.38539 22.0246 4.80562 25.6028 7.15035 28.3144ZM3.69355 14.98C4.35008 14.994 10.3794 15.022 17.2394 13.121C14.8143 8.62034 12.1882 4.84646 11.813 4.30135C7.69969 6.31408 4.64484 10.2557 3.69355 14.98ZM14.5999 3.26703C15.0018 3.82612 17.6681 7.59999 20.0664 12.1985C25.2784 10.1578 27.4758 7.08283 27.7437 6.69147C25.1579 4.30135 21.7546 2.84771 18.0299 2.84771C16.8508 2.84771 15.6986 3.00146 14.5999 3.26703ZM29.365 8.45261C29.0568 8.88591 26.6049 12.1706 21.1919 14.4768C21.5269 15.2037 21.8618 15.9445 22.17 16.6853C22.2772 16.9508 22.3844 17.2164 22.4916 17.468C27.3686 16.825 32.2054 17.8593 32.6878 17.9572C32.6476 14.365 31.4149 11.0524 29.365 8.45261Z" fill="white"/>
</svg>
