<svg width="37" height="37" viewBox="0 0 37 37" fill="none" xmlns="http://www.w3.org/2000/svg">
<path fill-rule="evenodd" clip-rule="evenodd" d="M2.77753 0.179932C1.31101 0.179932 0.121338 1.33338 0.121338 2.75441V33.5463C0.121338 34.9675 1.31115 36.1199 2.77753 36.1199H33.4051C34.8722 36.1199 36.0613 34.9673 36.0613 33.5459V2.75441C36.0613 1.33338 34.8722 0.179932 33.4051 0.179932H2.77753ZM11.0429 14.0768V30.2571H5.66478V14.0768H11.0429ZM11.3974 9.07282C11.3974 10.6255 10.23 11.868 8.35495 11.868L8.31971 11.8679C6.51471 11.8679 5.34778 10.6254 5.34778 9.07268C5.34778 7.48472 6.54995 6.27694 8.39061 6.27694C10.23 6.27694 11.3623 7.48472 11.3974 9.07282ZM19.3974 30.2571H14.0197C14.0197 30.2571 14.0902 15.5952 14.02 14.0773H19.3978V16.3676C20.1127 15.2653 21.3921 13.6974 24.2448 13.6974C27.783 13.6974 30.4359 16.0101 30.4359 20.9798V30.2571H25.0583V21.602C25.0583 19.4266 24.2796 17.943 22.3341 17.943C20.848 17.943 19.9631 18.9435 19.5745 19.9101C19.4325 20.2551 19.3974 20.7393 19.3974 21.2222V30.2571Z" fill="white"/>
</svg>
